HIERARCHY
ROOT Hips
{
	OFFSET 0.000000 0.000000 0.000000 
	CHANNELS 6 Xposition Yposition Zposition Yrotation Zrotation Xrotation 
	JOINT Lumbar
	{
		OFFSET 0.000000 0.000000 0.000000 
		CHANNELS 3 Zrotation Xrotation Yrotation
		JOINT Neck
		{
			OFFSET 0.000000 0.445665 0.000000 
			CHANNELS 3 Zrotation Xrotation Yrotation
			End Site
			{
				OFFSET 0.000000 0.227535 0.000000 
			}
		}
		JOINT RightShoulder
		{
			OFFSET 0.019635 0.377685 0.194865 
			CHANNELS 3 Zrotation Xrotation Yrotation
			JOINT RightElbow
			{
				OFFSET 0.000000 -0.243375 0.000000 
				CHANNELS 2 Zrotation Yrotation
				JOINT RightWrist
				{
					OFFSET 0.000000 -0.264825 0.000000 
					CHANNELS 2 Zrotation Xrotation
					End Site
					{
						OFFSET 0.006600 -0.176220 0.000990 
					}
				}
			}
		}
		JOINT LeftShoulder
		{
			OFFSET 0.019635 0.377685 -0.194865 
			CHANNELS 3 Zrotation Xrotation Yrotation
			JOINT LeftElbow
			{
				OFFSET 0.000000 -0.243375 0.000000 
				CHANNELS 2 Zrotation Yrotation
				JOINT LeftWrist
				{
					OFFSET 0.000000 -0.264825 0.000000 
					CHANNELS 2 Zrotation Xrotation
					End Site
					{
						OFFSET 0.006600 -0.176220 -0.000990 
					}
				}
			}
		}
	}
	JOINT RightHip
	{
		OFFSET 0.052140 -0.069960 0.075570 
		CHANNELS 3 Zrotation Xrotation Yrotation
		JOINT RightKnee
		{
			OFFSET 0.000000 -0.402270 0.000000 
			CHANNELS 1 Zrotation
			JOINT RightAnkle
			{
				OFFSET 0.000000 -0.404085 0.000000 
				CHANNELS 3 Zrotation Xrotation Yrotation
				End Site
				{
					OFFSET 0.204105 -0.089430 0.008415 
				}
			}
		}
	}
	JOINT LeftHip
	{
		OFFSET 0.052140 -0.069960 -0.075570 
		CHANNELS 3 Zrotation Xrotation Yrotation
		JOINT LeftKnee
		{
			OFFSET 0.000000 -0.402270 0.000000 
			CHANNELS 1 Zrotation
			JOINT LeftAnkle
			{
				OFFSET 0.000000 -0.404085 0.000000 
				CHANNELS 3 Zrotation Xrotation Yrotation
				End Site
				{
					OFFSET 0.204105 -0.089430 -0.008415 
				}
			}
		}
	}
}
MOTION
Frames: 19
Frame Time: 0.02
-1.50972 0.00423 -0.27454 175.64956 -35.96178 -0.81527 23.40499 4.48902 -14.05802 -12.18474 3.43806 -0.83074 11.54771 -5.71681 29.54651 109.10235 69.22699 -12.88876 0.27791 15.5577 5.894 -20.69622 89.76296 -88.07786 19.07661 2.5523 21.01741 -3.09957 13.76246 0.52415 -5.11093 -33.20797 -19.78256 19.90857 6.68179 -13.59331 0.54112 -13.89077 39.43503 21.33491
-1.50955 0.00419 -0.27428 175.62337 -35.96722 -0.81197 23.45934 4.47931 -14.07805 -12.16014 3.39642 -0.83074 11.25118 -5.86058 29.74245 109.24977 69.21857 -12.82516 0.30915 15.47597 5.94164 -20.64735 89.79788 -87.83448 18.97945 2.55736 21.04003 -3.12267 14.11698 0.52525 -5.87622 -34.16885 -20.0178 19.92036 6.65842 -13.55534 0.54114 -13.88449 39.45611 21.33886
-1.50937 0.00415 -0.27405 175.57892 -35.96725 -0.80793 23.50429 4.46946 -14.07931 -12.11547 3.3642 -0.83074 11.0392 -5.97573 30.18203 109.40828 69.35752 -12.7001 0.37456 15.40458 5.9779 -20.6043 89.80348 -87.6955 18.99957 2.54489 21.06192 -3.1497 14.66806 0.52676 -7.0477 -35.64019 -20.38858 19.92462 6.63098 -13.49589 0.54112 -13.85709 39.45141 21.33776
-1.50919 0.0041 -0.2738 175.54237 -35.96993 -0.80449 23.55349 4.45948 -14.08829 -12.08031 3.32894 -0.83074 10.78916 -6.10478 30.51393 109.56369 69.42256 -12.60614 0.41991 15.32986 6.01859 -20.55998 89.82198 -87.50821 18.95909 2.54152 21.08461 -3.17456 15.11103 0.52804 -7.9878 -36.82028 -20.68361 19.93255 6.60569 -13.4424 0.54111 -13.82886 39.44505 21.3366
-1.50902 0.00406 -0.27354 175.5075 -35.97212 -0.79975 23.603 4.45028 -14.10045 -12.04316 3.28844 -0.83074 10.53734 -6.23026 30.83238 109.71203 69.5054 -12.49912 0.48342 15.249 6.06243 -20.50984 89.84282 -87.31432 18.94204 2.53465 21.1058 -3.20119 15.63058 0.5295 -9.11953 -38.24345 -21.0362 19.93984 6.57897 -13.4024 0.54112 -13.83809 39.48691 21.34358
-1.50883 0.00402 -0.27332 175.46491 -35.97383 -0.79763 23.64949 4.43944 -14.10191 -12.00579 3.26092 -0.83074 10.30923 -6.35605 31.23483 109.87646 69.59251 -12.40478 0.51791 15.18347 6.09712 -20.47307 89.85167 -87.1627 18.90713 2.53038 21.12964 -3.22495 16.03895 0.53069 -9.95287 -39.287 -21.30248 19.94646 6.55437 -13.32954 0.54109 -13.76559 39.42402 21.33255
-1.50853 0.00398 -0.27316 175.40402 -35.97671 -0.80271 23.69044 4.42405 -14.07471 -11.96925 3.26918 -0.83074 10.1283 -6.49261 31.83583 110.09294 69.62987 -12.35781 0.45996 15.15844 6.10758 -20.47375 89.8339 -87.10494 18.79128 2.53807 21.16257 -3.24048 16.08477 0.53102 -9.83762 -39.12346 -21.29045 19.95392 6.53601 -13.17998 0.54096 -13.48942 39.09727 21.28041
-1.50821 0.00393 -0.27303 175.33624 -35.97907 -0.81051 23.72853 4.40704 -14.03802 -11.9338 3.28981 -0.83074 9.96805 -6.62983 32.50859 110.32333 69.67142 -12.32601 0.37244 15.14844 6.10948 -20.48737 89.80512 -87.08717 18.65506 2.54873 21.19789 -3.25285 16.01359 0.53106 -9.4132 -38.56704 -21.18835 19.96077 6.52006 -12.9976 0.54079 -13.13111 38.66551 21.20976
-1.50789 0.00389 -0.27288 175.27256 -35.98083 -0.81723 23.76759 4.3908 -14.00813 -11.9002 3.30331 -0.83074 9.7967 -6.76499 33.13159 110.54047 69.73043 -12.28909 0.30114 15.13113 6.11644 -20.49381 89.78175 -87.05073 18.53102 2.55753 21.231 -3.2662 16.00117 0.53125 -9.14751 -38.21346 -21.1322 19.96723 6.50345 -12.82413 0.54062 -12.79872 38.26858 21.14245
-1.50758 0.00385 -0.27274 175.20417 -35.98585 -0.82327 23.80776 4.37438 -13.96724 -11.85619 3.32345 -0.83074 9.63501 -6.90702 33.835 110.78701 69.71706 -12.24303 0.21934 15.11612 6.11818 -20.50591 89.75566 -87.01956 18.39827 2.56787 21.26872 -3.28159 15.97202 0.53139 -8.81934 -37.77556 -21.05962 19.97613 6.48488 -12.67248 0.54051 -12.50788 37.91808 21.09436
-1.50726 0.0038 -0.27261 175.14414 -35.98413 -0.83136 23.845 4.35801 -13.94705 -11.83413 3.33263 -0.83074 9.45761 -7.03471 34.38537 110.97576 69.84802 -12.2198 0.15185 15.09985 6.12878 -20.50924 89.73297 -86.98595 18.27775 2.57597 21.29757 -3.29199 15.94731 0.53156 -8.54215 -37.41274 -20.99801 19.98006 6.47097 -12.47128 0.54027 -12.11848 37.45501 21.00439
-1.50693 0.00375 -0.27252 175.10961 -35.96307 -0.84484 23.87562 4.34175 -13.98813 -11.87455 3.3082 -0.83074 9.2266 -7.12724 34.48963 110.99899 70.42464 -12.26153 0.13219 15.07561 6.16691 -20.48497 89.72277 -86.93288 18.192 2.57686 21.29991 -3.28888 15.96302 0.53186 -8.48343 -37.35622 -20.98914 19.96923 6.46963 -12.11179 0.53965 -11.41468 36.63119 20.78188
-1.50658 0.00369 -0.27246 175.08369 -35.93545 -0.86023 23.9033 4.32571 -14.05007 -11.93671 3.27239 -0.83074 8.97981 -7.20447 34.43732 110.96394 71.1372 -12.32511 0.12785 15.04973 6.21408 -20.45149 89.71643 -86.87609 18.11943 2.57553 21.29352 -3.28095 15.98631 0.5322 -8.48422 -37.38567 -20.99365 19.95371 6.47285 -11.70876 0.53892 -10.62537 35.71085 20.52159
-1.50624 0.00363 -0.27238 175.05343 -35.91144 -0.87453 23.93186 4.30984 -14.10142 -11.98765 3.24188 -0.83074 8.74299 -7.28601 34.45932 110.95723 71.75461 -12.37509 0.11532 15.025 6.25656 -20.42229 89.70817 -86.82242 18.04288 2.5755 21.29206 -3.27556 16.00551 0.53251 -8.45444 -37.37136 -20.99112 19.94113 6.47382 -11.34567 0.53829 -9.91738 34.88584 20.29311
-1.5059 0.00357 -0.27231 175.02469 -35.88471 -0.88991 23.96223 4.29273 -14.15731 -12.04434 3.21101 -0.83074 8.49435 -7.37926 34.47053 110.9434 72.51101 -12.44044 0.10589 14.99884 6.30132 -20.39296 89.7002 -86.76402 17.95724 2.57435 21.28658 -3.26858 16.0236 0.53285 -8.42921 -37.36364 -20.98966 19.92505 6.47566 -10.89809 0.53746 -9.03104 33.84447 20.00347
-1.50555 0.00351 -0.27224 174.99498 -35.86216 -0.90342 23.98817 4.27833 -14.20858 -12.0941 3.17832 -0.83074 8.26726 -7.44379 34.46626 110.93014 73.01281 -12.47957 0.09535 14.97536 6.34341 -20.36174 89.69269 -86.71423 17.89385 2.57493 21.28744 -3.26384 16.04715 0.53314 -8.41237 -37.36744 -20.99022 19.91525 6.47668 -10.61441 0.537 -8.49221 33.22646 19.83086
-1.50513 0.00348 -0.27214 174.9601 -35.8522 -0.9116 24.00277 4.271 -14.24414 -12.12033 3.14092 -0.83074 8.09514 -7.43896 34.45508 110.93468 72.75475 -12.43381 0.06619 14.9573 6.37762 -20.3258 89.68561 -86.68716 17.88938 2.5813 21.3073 -3.26614 16.08535 0.53332 -8.4069 -37.38493 -20.99385 19.92308 6.47467 -10.81314 0.53765 -8.97543 33.85154 20.00475
-1.50469 0.00344 -0.27204 174.92411 -35.84677 -0.91776 24.013 4.26649 -14.27403 -12.13866 3.10248 -0.83074 7.9467 -7.40474 34.43376 110.94134 72.24011 -12.36206 0.03741 14.94236 6.40857 -20.28848 89.67887 -86.66901 17.90679 2.5894 21.33395 -3.27093 16.12898 0.53345 -8.40874 -37.41233 -20.99931 19.93755 6.47158 -11.17505 0.53867 -9.80421 34.8974 20.29523
-1.50426 0.00341 -0.27194 174.88888 -35.83966 -0.92464 24.02513 4.26093 -14.30512 -12.15999 3.06605 -0.83074 7.79286 -7.37975 34.4184 110.94566 71.85838 -12.30694 0.01672 14.92752 6.43995 -20.25292 89.67196 -86.64786 17.91381 2.59637 21.35795 -3.2748 16.16985 0.53361 -8.40699 -37.4353 -21.00395 19.94957 6.46871 -11.44966 0.53949 -10.44766 35.71774 20.52308
